<?xml version="1.0" encoding="UTF-8" standalone="no"?>
<svg
   height="48"
   width="48"
   version="1.1"
   id="svg19"
   sodipodi:docname="EqualizerOff.svg"
   inkscape:version="1.1.2 (b8e25be833, 2022-02-05)"
   xmlns:inkscape="http://www.inkscape.org/namespaces/inkscape"
   xmlns:sodipodi="http://sodipodi.sourceforge.net/DTD/sodipodi-0.dtd"
   xmlns="http://www.w3.org/2000/svg"
   xmlns:svg="http://www.w3.org/2000/svg">
  <defs
     id="defs23" />
  <sodipodi:namedview
     id="namedview21"
     pagecolor="#505050"
     bordercolor="#eeeeee"
     borderopacity="1"
     inkscape:pageshadow="0"
     inkscape:pageopacity="0"
     inkscape:pagecheckerboard="0"
     showgrid="false"
     inkscape:zoom="22.627417"
     inkscape:cx="31.134795"
     inkscape:cy="25.124388"
     inkscape:window-width="1718"
     inkscape:window-height="1368"
     inkscape:window-x="1713"
     inkscape:window-y="0"
     inkscape:window-maximized="0"
     inkscape:current-layer="svg19" />
  <path
     d="m 23.875,40.875 c -0.966667,0 -1.791667,-0.341667 -2.475,-1.025 -0.683333,-0.683333 -1.025,-1.508333 -1.025,-2.475 V 23.0625 c 7,6.6875 0,0 7,6.6875 v 7.625 c 0,0.966667 -0.341667,1.791667 -1.025,2.475 -0.683333,0.683333 -1.508333,1.025 -2.475,1.025 z"
     id="path4208"
     sodipodi:nodetypes="sssccsss" />
  <path
     d="M 11.375,40.875 Q 9.925,40.875 8.9,39.85 7.875,38.825 7.875,37.375 v -9 q 0,-1.45 1.025,-2.475 1.025,-1.025 2.475,-1.025 1.45,0 2.475,1.025 1.025,1.025 1.025,2.475 v 9 q 0,1.45 -1.025,2.475 -1.025,1.025 -2.475,1.025 z"
     id="path17" />
  <path
     d="m 36.375,40.8125 c -0.966667,0 -1.791667,-0.341667 -2.475,-1.025 -0.683333,-0.683333 -0.97828,-1.509463 -1.025,-2.475 l -0.1875,-3.875 c 2.553617,2.966363 3.245293,3.148576 6.1625,6.35 -0.683333,0.683333 -1.508333,1.025 -2.475,1.025 z"
     id="path17-6"
     sodipodi:nodetypes="sssccs" />
  <path
     d="M 32.875,27.18815 V 20.25 c 0,-0.966667 0.341667,-1.791667 1.025,-2.475 0.683333,-0.683333 1.508333,-1.025 2.475,-1.025 0.966667,0 1.791667,0.341667 2.475,1.025 0.683333,0.683333 1.025,1.508333 1.025,2.475 v 13.929687 z"
     id="path4106"
     sodipodi:nodetypes="cssssscc" />
  <path
     d="M 20.375,14.679687 V 10.375 c 0,-0.966667 0.341667,-1.791667 1.025,-2.475 0.683333,-0.6833333 1.508333,-1.025 2.475,-1.025 0.966667,0 1.791667,0.3416667 2.475,1.025 0.683333,0.683333 1.025,1.508333 1.025,2.475 L 27.25,21.5625 Z"
     id="path4104"
     sodipodi:nodetypes="cssssscc" />
  <path
     d="M 40.575,43.3375 C 15.700057,18.361036 14.999442,17.81194 5.0750004,7.8874978 c -0.3,-0.3 -0.44167,-0.65 -0.425,-1.05 0.0167,-0.4 0.175,-0.75 0.475,-1.05 0.3,-0.3 0.65833,-0.45 1.075,-0.45 0.41667,0 0.775,0.15 1.075,0.45 L 42.725,41.2375 c 0.3,0.3 0.45,0.65 0.45,1.05 0,0.4 -0.15,0.75 -0.45,1.05 -0.3,0.3 -0.65833,0.45 -1.075,0.45 -0.41667,0 -0.775,-0.15 -1.075,-0.45 z"
     id="path2655-4"
     sodipodi:nodetypes="ccssssssssc" />
</svg>
