<?xml version="1.0" encoding="UTF-8" standalone="no"?>
<svg
   height="48"
   width="48"
   version="1.1"
   id="svg11197"
   sodipodi:docname="GraphicEqualizerOff.svg"
   inkscape:version="1.1.2 (b8e25be833, 2022-02-05)"
   xmlns:inkscape="http://www.inkscape.org/namespaces/inkscape"
   xmlns:sodipodi="http://sodipodi.sourceforge.net/DTD/sodipodi-0.dtd"
   xmlns="http://www.w3.org/2000/svg"
   xmlns:svg="http://www.w3.org/2000/svg">
  <defs
     id="defs11201" />
  <sodipodi:namedview
     id="namedview11199"
     pagecolor="#505050"
     bordercolor="#eeeeee"
     borderopacity="1"
     inkscape:pageshadow="0"
     inkscape:pageopacity="0"
     inkscape:pagecheckerboard="0"
     showgrid="false"
     inkscape:zoom="8"
     inkscape:cx="-30.6875"
     inkscape:cy="14.3125"
     inkscape:window-width="1718"
     inkscape:window-height="1368"
     inkscape:window-x="-7"
     inkscape:window-y="0"
     inkscape:window-maximized="0"
     inkscape:current-layer="svg11197" />
  <path
     d="M 32.25,36 C 31.816667,36 31.458333,35.858333 31.175,35.575 30.891667,35.291667 30.75,34.933333 30.75,34.5 v -3.233942 c 3,2.298097 0,0 3,2.298097 V 34.5 c 0,0 -0.141667,0.791667 -0.425,1.075 C 33.041667,35.858333 32.683333,36 32.25,36 Z"
     id="path11410"
     sodipodi:nodetypes="sssccsss" />
  <path
     d="M 24,44 C 22.961785,43.897409 22.727465,43.296864 22.5,42.5 V 22.140094 c 1.40269,1.418497 1.952444,2.198895 3,3.34357 V 42.5 c 0,0.433333 -0.141667,0.791667 -0.425,1.075 C 24.791667,43.858333 24.433333,44 24,44 Z"
     id="path11406-6"
     sodipodi:nodetypes="ccccssc" />
  <path
     d="M 40.5,28 Q 39.85,28 39.425,27.575 39,27.15 39,26.5 v -5 Q 39,20.85 39.425,20.425 39.85,20 40.5,20 41.15,20 41.575,20.425 42,20.85 42,21.5 v 5 q 0,0.65 -0.425,1.075 Q 41.15,28 40.5,28 Z"
     id="path11412" />
  <path
     d="M 30.75,24.443145 30.75,13.5 c 0,-0.433333 0.141667,-0.791667 0.425,-1.075 C 31.458333,12.141667 31.816667,12 32.25,12 c 0.433333,0 0.791667,0.141667 1.075,0.425 0.283333,0.283333 0.425,0.641667 0.425,1.075 v 13.952369 c -3,-3.009224 0,0 -3,-3.009224 z"
     id="path11410-1"
     sodipodi:nodetypes="cssssscc" />
  <path
     d="M 7.5,28 Q 6.85,28 6.425,27.575 6,27.15 6,26.5 v -5 Q 6,20.85 6.425,20.425 6.85,20 7.5,20 8.15,20 8.575,20.425 9,20.85 9,21.5 v 5 Q 9,27.15 8.575,27.575 8.15,28 7.5,28 Z"
     id="path11408" />
  <path
     d="M 22.5,16.202283 V 5.5 C 22.5,5.0666667 22.641667,4.7083333 22.925,4.425 23.208333,4.1416667 23.566667,4 24,4 24.433333,4 24.791667,4.1416667 25.075,4.425 25.358333,4.7083333 25.5,5.0666667 25.5,5.5 v 13.707326 c -3,-2.985512 -0.120592,-0.119165 -3,-3.005043 z"
     id="path11406"
     sodipodi:nodetypes="cssssscc" />
  <path
     d="M 15.75,36 C 15.316667,36 14.958333,35.858333 14.675,35.575 14.391667,35.291667 14.25,34.933333 14.25,34.5 v -21 c 1.378771,1.493296 1.472894,1.556962 2.670103,3.243986 L 17.25,34.5 c 0.0081,0.433258 -0.141667,0.791667 -0.425,1.075 C 16.541667,35.858333 16.183333,36 15.75,36 Z"
     id="path11195"
     sodipodi:nodetypes="sssccsss" />
  <path
     d="M 40.800615,42.857475 C 15.925672,17.881011 15.225057,17.331915 5.3006151,7.4074731 c -0.3,-0.3 -0.44167,-0.6499998 -0.425,-1.0499998 0.0167,-0.4 0.175,-0.75 0.475,-1.05 0.3,-0.3 0.65833,-0.45 1.075,-0.45 0.41667,0 0.775,0.15 1.075,0.45 L 42.950615,40.757475 c 0.3,0.3 0.45,0.65 0.45,1.05 0,0.4 -0.15,0.75 -0.45,1.05 -0.3,0.3 -0.65833,0.45 -1.075,0.45 -0.41667,0 -0.775,-0.15 -1.075,-0.45 z"
     id="path2655-4" />
</svg>
